<svg width="10" height="18" viewBox="0 0 10 18" fill="none" xmlns="http://www.w3.org/2000/svg">
<path d="M3.69997 9L9.54997 14.85C9.82497 15.125 9.96247 15.475 9.96247 15.9C9.96247 16.325 9.82497 16.675 9.54997 16.95C9.27497 17.225 8.92497 17.3625 8.49997 17.3625C8.07497 17.3625 7.72497 17.225 7.44997 16.95L0.549974 10.05C0.399974 9.9 0.293974 9.7375 0.231974 9.5625C0.169974 9.3875 0.138474 9.2 0.137474 9C0.136474 8.8 0.167974 8.6125 0.231974 8.4375C0.295974 8.2625 0.401974 8.1 0.549974 7.95L7.44997 1.05C7.72497 0.774996 8.07497 0.637497 8.49997 0.637497C8.92497 0.637497 9.27497 0.774996 9.54997 1.05C9.82497 1.325 9.96247 1.675 9.96247 2.1C9.96247 2.525 9.82497 2.875 9.54997 3.15L3.69997 9Z" fill="#111111" fill-opacity="0.85"/>
</svg>
