<svg width="10" height="18" viewBox="0 0 10 18" fill="none" xmlns="http://www.w3.org/2000/svg">
<path d="M6.40001 9L0.550012 3.15C0.275012 2.875 0.137512 2.525 0.137512 2.1C0.137512 1.675 0.275012 1.325 0.550012 1.05C0.825012 0.774996 1.17501 0.637497 1.60001 0.637497C2.02501 0.637497 2.37501 0.774996 2.65001 1.05L9.55001 7.95C9.70001 8.1 9.80651 8.2625 9.86951 8.4375C9.93251 8.6125 9.96351 8.8 9.96251 9C9.96151 9.2 9.93051 9.3875 9.86951 9.5625C9.80851 9.7375 9.70201 9.9 9.55001 10.05L2.65001 16.95C2.37501 17.225 2.02501 17.3625 1.60001 17.3625C1.17501 17.3625 0.825012 17.225 0.550012 16.95C0.275012 16.675 0.137512 16.325 0.137512 15.9C0.137512 15.475 0.275012 15.125 0.550012 14.85L6.40001 9Z" fill="#111111" fill-opacity="0.85"/>
</svg>
