<svg width="138" height="47" viewBox="0 0 138 47" fill="none" xmlns="http://www.w3.org/2000/svg">
<circle cx="45.0318" cy="1.53436" r="1" transform="rotate(-0.0314865 45.0318 1.53436)" fill="#111111" fill-opacity="0.65"/>
<circle cx="49.0318" cy="1.53217" r="1" transform="rotate(-0.0314865 49.0318 1.53217)" fill="#111111" fill-opacity="0.65"/>
<circle cx="53.0318" cy="1.52997" r="1" transform="rotate(-0.0314865 53.0318 1.52997)" fill="#111111" fill-opacity="0.65"/>
<circle cx="57.0318" cy="1.52777" r="1" transform="rotate(-0.0314865 57.0318 1.52777)" fill="#111111" fill-opacity="0.65"/>
<circle cx="61.0318" cy="1.52557" r="1" transform="rotate(-0.0314865 61.0318 1.52557)" fill="#111111" fill-opacity="0.65"/>
<circle cx="65.0318" cy="1.52338" r="1" transform="rotate(-0.0314865 65.0318 1.52338)" fill="#111111" fill-opacity="0.65"/>
<circle cx="69.0318" cy="1.52118" r="1" transform="rotate(-0.0314865 69.0318 1.52118)" fill="#111111" fill-opacity="0.65"/>
<circle cx="73.0318" cy="1.51898" r="1" transform="rotate(-0.0314865 73.0318 1.51898)" fill="#111111" fill-opacity="0.65"/>
<circle cx="41.034" cy="5.53656" r="1" transform="rotate(-0.0314865 41.034 5.53656)" fill="#111111" fill-opacity="0.65"/>
<circle cx="45.034" cy="5.53436" r="1" transform="rotate(-0.0314865 45.034 5.53436)" fill="#111111" fill-opacity="0.65"/>
<circle cx="49.034" cy="5.53217" r="1" transform="rotate(-0.0314865 49.034 5.53217)" fill="#111111" fill-opacity="0.65"/>
<circle cx="53.034" cy="5.52997" r="1" transform="rotate(-0.0314865 53.034 5.52997)" fill="#111111" fill-opacity="0.65"/>
<circle cx="57.034" cy="5.52777" r="1" transform="rotate(-0.0314865 57.034 5.52777)" fill="#111111" fill-opacity="0.65"/>
<circle cx="61.034" cy="5.52557" r="1" transform="rotate(-0.0314865 61.034 5.52557)" fill="#111111" fill-opacity="0.65"/>
<circle cx="65.034" cy="5.52338" r="1" transform="rotate(-0.0314865 65.034 5.52338)" fill="#111111" fill-opacity="0.65"/>
<circle cx="69.034" cy="5.52118" r="1" transform="rotate(-0.0314865 69.034 5.52118)" fill="#111111" fill-opacity="0.65"/>
<circle cx="25.0428" cy="21.5453" r="1" transform="rotate(-0.0314865 25.0428 21.5453)" fill="#111111" fill-opacity="0.65"/>
<circle cx="29.0428" cy="21.5432" r="1" transform="rotate(-0.0314865 29.0428 21.5432)" fill="#111111" fill-opacity="0.65"/>
<circle cx="33.0428" cy="21.541" r="1" transform="rotate(-0.0314865 33.0428 21.541)" fill="#111111" fill-opacity="0.65"/>
<circle cx="37.0428" cy="21.5388" r="1" transform="rotate(-0.0314865 37.0428 21.5388)" fill="#111111" fill-opacity="0.65"/>
<circle cx="41.0428" cy="21.5366" r="1" transform="rotate(-0.0314865 41.0428 21.5366)" fill="#111111" fill-opacity="0.65"/>
<circle cx="45.0428" cy="21.5344" r="1" transform="rotate(-0.0314865 45.0428 21.5344)" fill="#111111" fill-opacity="0.65"/>
<circle cx="49.0428" cy="21.5322" r="1" transform="rotate(-0.0314865 49.0428 21.5322)" fill="#111111" fill-opacity="0.65"/>
<circle cx="53.0428" cy="21.53" r="1" transform="rotate(-0.0314865 53.0428 21.53)" fill="#111111" fill-opacity="0.65"/>
<circle cx="29.0406" cy="17.5432" r="1" transform="rotate(-0.0314865 29.0406 17.5432)" fill="#111111" fill-opacity="0.65"/>
<circle cx="33.0406" cy="17.541" r="1" transform="rotate(-0.0314865 33.0406 17.541)" fill="#111111" fill-opacity="0.65"/>
<circle cx="37.0406" cy="17.5388" r="1" transform="rotate(-0.0314865 37.0406 17.5388)" fill="#111111" fill-opacity="0.65"/>
<circle cx="41.0406" cy="17.5366" r="1" transform="rotate(-0.0314865 41.0406 17.5366)" fill="#111111" fill-opacity="0.65"/>
<circle cx="45.0406" cy="17.5344" r="1" transform="rotate(-0.0314865 45.0406 17.5344)" fill="#111111" fill-opacity="0.65"/>
<circle cx="49.0406" cy="17.5322" r="1" transform="rotate(-0.0314865 49.0406 17.5322)" fill="#111111" fill-opacity="0.65"/>
<circle cx="53.0406" cy="17.53" r="1" transform="rotate(-0.0314865 53.0406 17.53)" fill="#111111" fill-opacity="0.65"/>
<circle cx="57.0406" cy="17.5278" r="1" transform="rotate(-0.0314865 57.0406 17.5278)" fill="#111111" fill-opacity="0.65"/>
<circle cx="33.0384" cy="13.541" r="1" transform="rotate(-0.0314865 33.0384 13.541)" fill="#111111" fill-opacity="0.65"/>
<circle cx="37.0384" cy="13.5388" r="1" transform="rotate(-0.0314865 37.0384 13.5388)" fill="#111111" fill-opacity="0.65"/>
<circle cx="41.0384" cy="13.5366" r="1" transform="rotate(-0.0314865 41.0384 13.5366)" fill="#111111" fill-opacity="0.65"/>
<circle cx="45.0384" cy="13.5344" r="1" transform="rotate(-0.0314865 45.0384 13.5344)" fill="#111111" fill-opacity="0.65"/>
<circle cx="49.0384" cy="13.5322" r="1" transform="rotate(-0.0314865 49.0384 13.5322)" fill="#111111" fill-opacity="0.65"/>
<circle cx="53.0384" cy="13.53" r="1" transform="rotate(-0.0314865 53.0384 13.53)" fill="#111111" fill-opacity="0.65"/>
<circle cx="57.0384" cy="13.5278" r="1" transform="rotate(-0.0314865 57.0384 13.5278)" fill="#111111" fill-opacity="0.65"/>
<circle cx="61.0384" cy="13.5256" r="1" transform="rotate(-0.0314865 61.0384 13.5256)" fill="#111111" fill-opacity="0.65"/>
<circle cx="37.0362" cy="9.53876" r="1" transform="rotate(-0.0314865 37.0362 9.53876)" fill="#111111" fill-opacity="0.65"/>
<circle cx="41.0362" cy="9.53656" r="1" transform="rotate(-0.0314865 41.0362 9.53656)" fill="#111111" fill-opacity="0.65"/>
<circle cx="45.0362" cy="9.53436" r="1" transform="rotate(-0.0314865 45.0362 9.53436)" fill="#111111" fill-opacity="0.65"/>
<circle cx="49.0362" cy="9.53217" r="1" transform="rotate(-0.0314865 49.0362 9.53217)" fill="#111111" fill-opacity="0.65"/>
<circle cx="53.0362" cy="9.52997" r="1" transform="rotate(-0.0314865 53.0362 9.52997)" fill="#111111" fill-opacity="0.65"/>
<circle cx="57.0362" cy="9.52777" r="1" transform="rotate(-0.0314865 57.0362 9.52777)" fill="#111111" fill-opacity="0.65"/>
<circle cx="61.0362" cy="9.52557" r="1" transform="rotate(-0.0314865 61.0362 9.52557)" fill="#111111" fill-opacity="0.65"/>
<circle cx="65.0362" cy="9.52338" r="1" transform="rotate(-0.0314865 65.0362 9.52338)" fill="#111111" fill-opacity="0.65"/>
<circle cx="84.7358" cy="25.5422" r="1" transform="rotate(-0.0314865 84.7358 25.5422)" fill="#111111" fill-opacity="0.65"/>
<circle cx="88.7358" cy="25.54" r="1" transform="rotate(-0.0314865 88.7358 25.54)" fill="#111111" fill-opacity="0.65"/>
<circle cx="92.7358" cy="25.5378" r="1" transform="rotate(-0.0314865 92.7358 25.5378)" fill="#111111" fill-opacity="0.65"/>
<circle cx="96.7358" cy="25.5356" r="1" transform="rotate(-0.0314865 96.7358 25.5356)" fill="#111111" fill-opacity="0.65"/>
<circle cx="100.736" cy="25.5334" r="1" transform="rotate(-0.0314865 100.736 25.5334)" fill="#111111" fill-opacity="0.65"/>
<circle cx="104.736" cy="25.5312" r="1" transform="rotate(-0.0314865 104.736 25.5312)" fill="#111111" fill-opacity="0.65"/>
<circle cx="108.736" cy="25.5291" r="1" transform="rotate(-0.0314865 108.736 25.5291)" fill="#111111" fill-opacity="0.65"/>
<circle cx="112.736" cy="25.5269" r="1" transform="rotate(-0.0314865 112.736 25.5269)" fill="#111111" fill-opacity="0.65"/>
<circle cx="80.738" cy="29.5444" r="1" transform="rotate(-0.0314865 80.738 29.5444)" fill="#111111" fill-opacity="0.65"/>
<circle cx="84.738" cy="29.5422" r="1" transform="rotate(-0.0314865 84.738 29.5422)" fill="#111111" fill-opacity="0.65"/>
<circle cx="88.738" cy="29.54" r="1" transform="rotate(-0.0314865 88.738 29.54)" fill="#111111" fill-opacity="0.65"/>
<circle cx="92.738" cy="29.5378" r="1" transform="rotate(-0.0314865 92.738 29.5378)" fill="#111111" fill-opacity="0.65"/>
<circle cx="96.738" cy="29.5356" r="1" transform="rotate(-0.0314865 96.738 29.5356)" fill="#111111" fill-opacity="0.65"/>
<circle cx="100.738" cy="29.5334" r="1" transform="rotate(-0.0314865 100.738 29.5334)" fill="#111111" fill-opacity="0.65"/>
<circle cx="104.738" cy="29.5312" r="1" transform="rotate(-0.0314865 104.738 29.5312)" fill="#111111" fill-opacity="0.65"/>
<circle cx="108.738" cy="29.5291" r="1" transform="rotate(-0.0314865 108.738 29.5291)" fill="#111111" fill-opacity="0.65"/>
<circle cx="64.7468" cy="45.5532" r="1" transform="rotate(-0.0314865 64.7468 45.5532)" fill="#111111" fill-opacity="0.65"/>
<circle cx="68.7468" cy="45.551" r="1" transform="rotate(-0.0314865 68.7468 45.551)" fill="#111111" fill-opacity="0.65"/>
<circle cx="72.7468" cy="45.5488" r="1" transform="rotate(-0.0314865 72.7468 45.5488)" fill="#111111" fill-opacity="0.65"/>
<circle cx="76.7468" cy="45.5466" r="1" transform="rotate(-0.0314865 76.7468 45.5466)" fill="#111111" fill-opacity="0.65"/>
<circle cx="80.7468" cy="45.5444" r="1" transform="rotate(-0.0314865 80.7468 45.5444)" fill="#111111" fill-opacity="0.65"/>
<circle cx="84.7468" cy="45.5422" r="1" transform="rotate(-0.0314865 84.7468 45.5422)" fill="#111111" fill-opacity="0.65"/>
<circle cx="88.7468" cy="45.54" r="1" transform="rotate(-0.0314865 88.7468 45.54)" fill="#111111" fill-opacity="0.65"/>
<circle cx="92.7468" cy="45.5378" r="1" transform="rotate(-0.0314865 92.7468 45.5378)" fill="#111111" fill-opacity="0.65"/>
<circle cx="68.7446" cy="41.551" r="1" transform="rotate(-0.0314865 68.7446 41.551)" fill="#111111" fill-opacity="0.65"/>
<circle cx="72.7446" cy="41.5488" r="1" transform="rotate(-0.0314865 72.7446 41.5488)" fill="#111111" fill-opacity="0.65"/>
<circle cx="76.7446" cy="41.5466" r="1" transform="rotate(-0.0314865 76.7446 41.5466)" fill="#111111" fill-opacity="0.65"/>
<circle cx="80.7446" cy="41.5444" r="1" transform="rotate(-0.0314865 80.7446 41.5444)" fill="#111111" fill-opacity="0.65"/>
<circle cx="84.7446" cy="41.5422" r="1" transform="rotate(-0.0314865 84.7446 41.5422)" fill="#111111" fill-opacity="0.65"/>
<circle cx="88.7446" cy="41.54" r="1" transform="rotate(-0.0314865 88.7446 41.54)" fill="#111111" fill-opacity="0.65"/>
<circle cx="92.7446" cy="41.5378" r="1" transform="rotate(-0.0314865 92.7446 41.5378)" fill="#111111" fill-opacity="0.65"/>
<circle cx="96.7446" cy="41.5356" r="1" transform="rotate(-0.0314865 96.7446 41.5356)" fill="#111111" fill-opacity="0.65"/>
<circle cx="72.7424" cy="37.5488" r="1" transform="rotate(-0.0314865 72.7424 37.5488)" fill="#111111" fill-opacity="0.65"/>
<circle cx="76.7424" cy="37.5466" r="1" transform="rotate(-0.0314865 76.7424 37.5466)" fill="#111111" fill-opacity="0.65"/>
<circle cx="80.7424" cy="37.5444" r="1" transform="rotate(-0.0314865 80.7424 37.5444)" fill="#111111" fill-opacity="0.65"/>
<circle cx="84.7424" cy="37.5422" r="1" transform="rotate(-0.0314865 84.7424 37.5422)" fill="#111111" fill-opacity="0.65"/>
<circle cx="88.7424" cy="37.54" r="1" transform="rotate(-0.0314865 88.7424 37.54)" fill="#111111" fill-opacity="0.65"/>
<circle cx="92.7424" cy="37.5378" r="1" transform="rotate(-0.0314865 92.7424 37.5378)" fill="#111111" fill-opacity="0.65"/>
<circle cx="96.7424" cy="37.5356" r="1" transform="rotate(-0.0314865 96.7424 37.5356)" fill="#111111" fill-opacity="0.65"/>
<circle cx="100.742" cy="37.5334" r="1" transform="rotate(-0.0314865 100.742 37.5334)" fill="#111111" fill-opacity="0.65"/>
<circle cx="76.7402" cy="33.5466" r="1" transform="rotate(-0.0314865 76.7402 33.5466)" fill="#111111" fill-opacity="0.65"/>
<circle cx="80.7402" cy="33.5444" r="1" transform="rotate(-0.0314865 80.7402 33.5444)" fill="#111111" fill-opacity="0.65"/>
<circle cx="84.7402" cy="33.5422" r="1" transform="rotate(-0.0314865 84.7402 33.5422)" fill="#111111" fill-opacity="0.65"/>
<circle cx="88.7402" cy="33.54" r="1" transform="rotate(-0.0314865 88.7402 33.54)" fill="#111111" fill-opacity="0.65"/>
<circle cx="92.7402" cy="33.5378" r="1" transform="rotate(-0.0314865 92.7402 33.5378)" fill="#111111" fill-opacity="0.65"/>
<circle cx="96.7402" cy="33.5356" r="1" transform="rotate(-0.0314865 96.7402 33.5356)" fill="#111111" fill-opacity="0.65"/>
<circle cx="100.74" cy="33.5334" r="1" transform="rotate(-0.0314865 100.74 33.5334)" fill="#111111" fill-opacity="0.65"/>
<circle cx="104.74" cy="33.5312" r="1" transform="rotate(-0.0314865 104.74 33.5312)" fill="#111111" fill-opacity="0.65"/>
<circle cx="108.724" cy="1.677" r="1" transform="rotate(-0.0314865 108.724 1.677)" fill="#111111" fill-opacity="0.65"/>
<circle cx="112.724" cy="1.6748" r="1" transform="rotate(-0.0314865 112.724 1.6748)" fill="#111111" fill-opacity="0.65"/>
<circle cx="116.724" cy="1.67261" r="1" transform="rotate(-0.0314865 116.724 1.67261)" fill="#111111" fill-opacity="0.65"/>
<circle cx="120.724" cy="1.67041" r="1" transform="rotate(-0.0314865 120.724 1.67041)" fill="#111111" fill-opacity="0.65"/>
<circle cx="124.724" cy="1.66821" r="1" transform="rotate(-0.0314865 124.724 1.66821)" fill="#111111" fill-opacity="0.65"/>
<circle cx="128.724" cy="1.66602" r="1" transform="rotate(-0.0314865 128.724 1.66602)" fill="#111111" fill-opacity="0.65"/>
<circle cx="132.724" cy="1.66382" r="1" transform="rotate(-0.0314865 132.724 1.66382)" fill="#111111" fill-opacity="0.65"/>
<circle cx="136.724" cy="1.66162" r="1" transform="rotate(-0.0314865 136.724 1.66162)" fill="#111111" fill-opacity="0.65"/>
<circle cx="104.727" cy="5.6792" r="1" transform="rotate(-0.0314865 104.727 5.6792)" fill="#111111" fill-opacity="0.65"/>
<circle cx="108.727" cy="5.677" r="1" transform="rotate(-0.0314865 108.727 5.677)" fill="#111111" fill-opacity="0.65"/>
<circle cx="112.727" cy="5.6748" r="1" transform="rotate(-0.0314865 112.727 5.6748)" fill="#111111" fill-opacity="0.65"/>
<circle cx="116.727" cy="5.67261" r="1" transform="rotate(-0.0314865 116.727 5.67261)" fill="#111111" fill-opacity="0.65"/>
<circle cx="120.727" cy="5.67041" r="1" transform="rotate(-0.0314865 120.727 5.67041)" fill="#111111" fill-opacity="0.65"/>
<circle cx="124.727" cy="5.66821" r="1" transform="rotate(-0.0314865 124.727 5.66821)" fill="#111111" fill-opacity="0.65"/>
<circle cx="128.727" cy="5.66602" r="1" transform="rotate(-0.0314865 128.727 5.66602)" fill="#111111" fill-opacity="0.65"/>
<circle cx="132.727" cy="5.66382" r="1" transform="rotate(-0.0314865 132.727 5.66382)" fill="#111111" fill-opacity="0.65"/>
<circle cx="88.7354" cy="21.688" r="1" transform="rotate(-0.0314865 88.7354 21.688)" fill="#111111" fill-opacity="0.65"/>
<circle cx="92.7354" cy="21.6858" r="1" transform="rotate(-0.0314865 92.7354 21.6858)" fill="#111111" fill-opacity="0.65"/>
<circle cx="96.7354" cy="21.6836" r="1" transform="rotate(-0.0314865 96.7354 21.6836)" fill="#111111" fill-opacity="0.65"/>
<circle cx="100.735" cy="21.6814" r="1" transform="rotate(-0.0314865 100.735 21.6814)" fill="#111111" fill-opacity="0.65"/>
<circle cx="104.735" cy="21.6792" r="1" transform="rotate(-0.0314865 104.735 21.6792)" fill="#111111" fill-opacity="0.65"/>
<circle cx="108.735" cy="21.677" r="1" transform="rotate(-0.0314865 108.735 21.677)" fill="#111111" fill-opacity="0.65"/>
<circle cx="112.735" cy="21.6748" r="1" transform="rotate(-0.0314865 112.735 21.6748)" fill="#111111" fill-opacity="0.65"/>
<circle cx="116.735" cy="21.6726" r="1" transform="rotate(-0.0314865 116.735 21.6726)" fill="#111111" fill-opacity="0.65"/>
<circle cx="92.7332" cy="17.6858" r="1" transform="rotate(-0.0314865 92.7332 17.6858)" fill="#111111" fill-opacity="0.65"/>
<circle cx="96.7332" cy="17.6836" r="1" transform="rotate(-0.0314865 96.7332 17.6836)" fill="#111111" fill-opacity="0.65"/>
<circle cx="100.733" cy="17.6814" r="1" transform="rotate(-0.0314865 100.733 17.6814)" fill="#111111" fill-opacity="0.65"/>
<circle cx="104.733" cy="17.6792" r="1" transform="rotate(-0.0314865 104.733 17.6792)" fill="#111111" fill-opacity="0.65"/>
<circle cx="108.733" cy="17.677" r="1" transform="rotate(-0.0314865 108.733 17.677)" fill="#111111" fill-opacity="0.65"/>
<circle cx="112.733" cy="17.6748" r="1" transform="rotate(-0.0314865 112.733 17.6748)" fill="#111111" fill-opacity="0.65"/>
<circle cx="116.733" cy="17.6726" r="1" transform="rotate(-0.0314865 116.733 17.6726)" fill="#111111" fill-opacity="0.65"/>
<circle cx="120.733" cy="17.6704" r="1" transform="rotate(-0.0314865 120.733 17.6704)" fill="#111111" fill-opacity="0.65"/>
<circle cx="96.731" cy="13.6836" r="1" transform="rotate(-0.0314865 96.731 13.6836)" fill="#111111" fill-opacity="0.65"/>
<circle cx="100.731" cy="13.6814" r="1" transform="rotate(-0.0314865 100.731 13.6814)" fill="#111111" fill-opacity="0.65"/>
<circle cx="104.731" cy="13.6792" r="1" transform="rotate(-0.0314865 104.731 13.6792)" fill="#111111" fill-opacity="0.65"/>
<circle cx="108.731" cy="13.677" r="1" transform="rotate(-0.0314865 108.731 13.677)" fill="#111111" fill-opacity="0.65"/>
<circle cx="112.731" cy="13.6748" r="1" transform="rotate(-0.0314865 112.731 13.6748)" fill="#111111" fill-opacity="0.65"/>
<circle cx="116.731" cy="13.6726" r="1" transform="rotate(-0.0314865 116.731 13.6726)" fill="#111111" fill-opacity="0.65"/>
<circle cx="120.731" cy="13.6704" r="1" transform="rotate(-0.0314865 120.731 13.6704)" fill="#111111" fill-opacity="0.65"/>
<circle cx="124.731" cy="13.6682" r="1" transform="rotate(-0.0314865 124.731 13.6682)" fill="#111111" fill-opacity="0.65"/>
<circle cx="100.729" cy="9.6814" r="1" transform="rotate(-0.0314865 100.729 9.6814)" fill="#111111" fill-opacity="0.65"/>
<circle cx="104.729" cy="9.6792" r="1" transform="rotate(-0.0314865 104.729 9.6792)" fill="#111111" fill-opacity="0.65"/>
<circle cx="108.729" cy="9.677" r="1" transform="rotate(-0.0314865 108.729 9.677)" fill="#111111" fill-opacity="0.65"/>
<circle cx="112.729" cy="9.6748" r="1" transform="rotate(-0.0314865 112.729 9.6748)" fill="#111111" fill-opacity="0.65"/>
<circle cx="116.729" cy="9.67261" r="1" transform="rotate(-0.0314865 116.729 9.67261)" fill="#111111" fill-opacity="0.65"/>
<circle cx="120.729" cy="9.67041" r="1" transform="rotate(-0.0314865 120.729 9.67041)" fill="#111111" fill-opacity="0.65"/>
<circle cx="124.729" cy="9.66821" r="1" transform="rotate(-0.0314865 124.729 9.66821)" fill="#111111" fill-opacity="0.65"/>
<circle cx="128.729" cy="9.66602" r="1" transform="rotate(-0.0314865 128.729 9.66602)" fill="#111111" fill-opacity="0.65"/>
<circle cx="53.6002" cy="25.6089" r="1" transform="rotate(-0.0314865 53.6002 25.6089)" fill="#111111" fill-opacity="0.65"/>
<circle cx="57.6002" cy="25.6067" r="1" transform="rotate(-0.0314865 57.6002 25.6067)" fill="#111111" fill-opacity="0.65"/>
<circle cx="61.6002" cy="25.6045" r="1" transform="rotate(-0.0314865 61.6002 25.6045)" fill="#111111" fill-opacity="0.65"/>
<circle cx="65.6002" cy="25.6023" r="1" transform="rotate(-0.0314865 65.6002 25.6023)" fill="#111111" fill-opacity="0.65"/>
<circle cx="69.6002" cy="25.6001" r="1" transform="rotate(-0.0314865 69.6002 25.6001)" fill="#111111" fill-opacity="0.65"/>
<circle cx="73.6002" cy="25.5979" r="1" transform="rotate(-0.0314865 73.6002 25.5979)" fill="#111111" fill-opacity="0.65"/>
<circle cx="77.6002" cy="25.5957" r="1" transform="rotate(-0.0314865 77.6002 25.5957)" fill="#111111" fill-opacity="0.65"/>
<circle cx="81.6002" cy="25.5935" r="1" transform="rotate(-0.0314865 81.6002 25.5935)" fill="#111111" fill-opacity="0.65"/>
<circle cx="49.6024" cy="29.6111" r="1" transform="rotate(-0.0314865 49.6024 29.6111)" fill="#111111" fill-opacity="0.65"/>
<circle cx="53.6024" cy="29.6089" r="1" transform="rotate(-0.0314865 53.6024 29.6089)" fill="#111111" fill-opacity="0.65"/>
<circle cx="57.6024" cy="29.6067" r="1" transform="rotate(-0.0314865 57.6024 29.6067)" fill="#111111" fill-opacity="0.65"/>
<circle cx="61.6024" cy="29.6045" r="1" transform="rotate(-0.0314865 61.6024 29.6045)" fill="#111111" fill-opacity="0.65"/>
<circle cx="65.6024" cy="29.6023" r="1" transform="rotate(-0.0314865 65.6024 29.6023)" fill="#111111" fill-opacity="0.65"/>
<circle cx="69.6024" cy="29.6001" r="1" transform="rotate(-0.0314865 69.6024 29.6001)" fill="#111111" fill-opacity="0.65"/>
<circle cx="73.6024" cy="29.5979" r="1" transform="rotate(-0.0314865 73.6024 29.5979)" fill="#111111" fill-opacity="0.65"/>
<circle cx="77.6024" cy="29.5957" r="1" transform="rotate(-0.0314865 77.6024 29.5957)" fill="#111111" fill-opacity="0.65"/>
<circle cx="33.6111" cy="45.6199" r="1" transform="rotate(-0.0314865 33.6111 45.6199)" fill="#111111" fill-opacity="0.65"/>
<circle cx="37.6111" cy="45.6177" r="1" transform="rotate(-0.0314865 37.6111 45.6177)" fill="#111111" fill-opacity="0.65"/>
<circle cx="41.6111" cy="45.6155" r="1" transform="rotate(-0.0314865 41.6111 45.6155)" fill="#111111" fill-opacity="0.65"/>
<circle cx="45.6111" cy="45.6133" r="1" transform="rotate(-0.0314865 45.6111 45.6133)" fill="#111111" fill-opacity="0.65"/>
<circle cx="49.6111" cy="45.6111" r="1" transform="rotate(-0.0314865 49.6111 45.6111)" fill="#111111" fill-opacity="0.65"/>
<circle cx="53.6111" cy="45.6089" r="1" transform="rotate(-0.0314865 53.6111 45.6089)" fill="#111111" fill-opacity="0.65"/>
<circle cx="57.6111" cy="45.6067" r="1" transform="rotate(-0.0314865 57.6111 45.6067)" fill="#111111" fill-opacity="0.65"/>
<circle cx="61.6111" cy="45.6045" r="1" transform="rotate(-0.0314865 61.6111 45.6045)" fill="#111111" fill-opacity="0.65"/>
<circle cx="37.6089" cy="41.6177" r="1" transform="rotate(-0.0314865 37.6089 41.6177)" fill="#111111" fill-opacity="0.65"/>
<circle cx="41.6089" cy="41.6155" r="1" transform="rotate(-0.0314865 41.6089 41.6155)" fill="#111111" fill-opacity="0.65"/>
<circle cx="45.6089" cy="41.6133" r="1" transform="rotate(-0.0314865 45.6089 41.6133)" fill="#111111" fill-opacity="0.65"/>
<circle cx="49.6089" cy="41.6111" r="1" transform="rotate(-0.0314865 49.6089 41.6111)" fill="#111111" fill-opacity="0.65"/>
<circle cx="53.6089" cy="41.6089" r="1" transform="rotate(-0.0314865 53.6089 41.6089)" fill="#111111" fill-opacity="0.65"/>
<circle cx="57.6089" cy="41.6067" r="1" transform="rotate(-0.0314865 57.6089 41.6067)" fill="#111111" fill-opacity="0.65"/>
<circle cx="61.6089" cy="41.6045" r="1" transform="rotate(-0.0314865 61.6089 41.6045)" fill="#111111" fill-opacity="0.65"/>
<circle cx="65.6089" cy="41.6023" r="1" transform="rotate(-0.0314865 65.6089 41.6023)" fill="#111111" fill-opacity="0.65"/>
<circle cx="41.6068" cy="37.6155" r="1" transform="rotate(-0.0314865 41.6068 37.6155)" fill="#111111" fill-opacity="0.65"/>
<circle cx="45.6068" cy="37.6133" r="1" transform="rotate(-0.0314865 45.6068 37.6133)" fill="#111111" fill-opacity="0.65"/>
<circle cx="49.6068" cy="37.6111" r="1" transform="rotate(-0.0314865 49.6068 37.6111)" fill="#111111" fill-opacity="0.65"/>
<circle cx="53.6068" cy="37.6089" r="1" transform="rotate(-0.0314865 53.6068 37.6089)" fill="#111111" fill-opacity="0.65"/>
<circle cx="57.6068" cy="37.6067" r="1" transform="rotate(-0.0314865 57.6068 37.6067)" fill="#111111" fill-opacity="0.65"/>
<circle cx="61.6068" cy="37.6045" r="1" transform="rotate(-0.0314865 61.6068 37.6045)" fill="#111111" fill-opacity="0.65"/>
<circle cx="65.6068" cy="37.6023" r="1" transform="rotate(-0.0314865 65.6068 37.6023)" fill="#111111" fill-opacity="0.65"/>
<circle cx="69.6068" cy="37.6001" r="1" transform="rotate(-0.0314865 69.6068 37.6001)" fill="#111111" fill-opacity="0.65"/>
<circle cx="45.6046" cy="33.6133" r="1" transform="rotate(-0.0314865 45.6046 33.6133)" fill="#111111" fill-opacity="0.65"/>
<circle cx="49.6046" cy="33.6111" r="1" transform="rotate(-0.0314865 49.6046 33.6111)" fill="#111111" fill-opacity="0.65"/>
<circle cx="53.6046" cy="33.6089" r="1" transform="rotate(-0.0314865 53.6046 33.6089)" fill="#111111" fill-opacity="0.65"/>
<circle cx="57.6046" cy="33.6067" r="1" transform="rotate(-0.0314865 57.6046 33.6067)" fill="#111111" fill-opacity="0.65"/>
<circle cx="61.6046" cy="33.6045" r="1" transform="rotate(-0.0314865 61.6046 33.6045)" fill="#111111" fill-opacity="0.65"/>
<circle cx="65.6046" cy="33.6023" r="1" transform="rotate(-0.0314865 65.6046 33.6023)" fill="#111111" fill-opacity="0.65"/>
<circle cx="69.6046" cy="33.6001" r="1" transform="rotate(-0.0314865 69.6046 33.6001)" fill="#111111" fill-opacity="0.65"/>
<circle cx="73.6046" cy="33.5979" r="1" transform="rotate(-0.0314865 73.6046 33.5979)" fill="#111111" fill-opacity="0.65"/>
<circle cx="77.149" cy="1.65875" r="1" transform="rotate(-0.0314865 77.149 1.65875)" fill="#111111" fill-opacity="0.65"/>
<circle cx="81.149" cy="1.65655" r="1" transform="rotate(-0.0314865 81.149 1.65655)" fill="#111111" fill-opacity="0.65"/>
<circle cx="85.149" cy="1.6543" r="1" transform="rotate(-0.0314865 85.149 1.6543)" fill="#111111" fill-opacity="0.65"/>
<circle cx="89.149" cy="1.6521" r="1" transform="rotate(-0.0314865 89.149 1.6521)" fill="#111111" fill-opacity="0.65"/>
<circle cx="93.149" cy="1.6499" r="1" transform="rotate(-0.0314865 93.149 1.6499)" fill="#111111" fill-opacity="0.65"/>
<circle cx="97.149" cy="1.6477" r="1" transform="rotate(-0.0314865 97.149 1.6477)" fill="#111111" fill-opacity="0.65"/>
<circle cx="101.149" cy="1.64551" r="1" transform="rotate(-0.0314865 101.149 1.64551)" fill="#111111" fill-opacity="0.65"/>
<circle cx="105.149" cy="1.64331" r="1" transform="rotate(-0.0314865 105.149 1.64331)" fill="#111111" fill-opacity="0.65"/>
<circle cx="73.1512" cy="5.66095" r="1" transform="rotate(-0.0314865 73.1512 5.66095)" fill="#111111" fill-opacity="0.65"/>
<circle cx="77.1512" cy="5.65875" r="1" transform="rotate(-0.0314865 77.1512 5.65875)" fill="#111111" fill-opacity="0.65"/>
<circle cx="81.1512" cy="5.65649" r="1" transform="rotate(-0.0314865 81.1512 5.65649)" fill="#111111" fill-opacity="0.65"/>
<circle cx="85.1512" cy="5.6543" r="1" transform="rotate(-0.0314865 85.1512 5.6543)" fill="#111111" fill-opacity="0.65"/>
<circle cx="89.1512" cy="5.6521" r="1" transform="rotate(-0.0314865 89.1512 5.6521)" fill="#111111" fill-opacity="0.65"/>
<circle cx="93.1512" cy="5.6499" r="1" transform="rotate(-0.0314865 93.1512 5.6499)" fill="#111111" fill-opacity="0.65"/>
<circle cx="97.1512" cy="5.6477" r="1" transform="rotate(-0.0314865 97.1512 5.6477)" fill="#111111" fill-opacity="0.65"/>
<circle cx="101.151" cy="5.64551" r="1" transform="rotate(-0.0314865 101.151 5.64551)" fill="#111111" fill-opacity="0.65"/>
<circle cx="57.16" cy="21.6697" r="1" transform="rotate(-0.0314865 57.16 21.6697)" fill="#111111" fill-opacity="0.65"/>
<circle cx="61.16" cy="21.6675" r="1" transform="rotate(-0.0314865 61.16 21.6675)" fill="#111111" fill-opacity="0.65"/>
<circle cx="65.16" cy="21.6653" r="1" transform="rotate(-0.0314865 65.16 21.6653)" fill="#111111" fill-opacity="0.65"/>
<circle cx="69.16" cy="21.6631" r="1" transform="rotate(-0.0314865 69.16 21.6631)" fill="#111111" fill-opacity="0.65"/>
<circle cx="73.16" cy="21.6609" r="1" transform="rotate(-0.0314865 73.16 21.6609)" fill="#111111" fill-opacity="0.65"/>
<circle cx="77.16" cy="21.6587" r="1" transform="rotate(-0.0314865 77.16 21.6587)" fill="#111111" fill-opacity="0.65"/>
<circle cx="81.16" cy="21.6565" r="1" transform="rotate(-0.0314865 81.16 21.6565)" fill="#111111" fill-opacity="0.65"/>
<circle cx="85.16" cy="21.6543" r="1" transform="rotate(-0.0314865 85.16 21.6543)" fill="#111111" fill-opacity="0.65"/>
<circle cx="61.1578" cy="17.6675" r="1" transform="rotate(-0.0314865 61.1578 17.6675)" fill="#111111" fill-opacity="0.65"/>
<circle cx="65.1578" cy="17.6653" r="1" transform="rotate(-0.0314865 65.1578 17.6653)" fill="#111111" fill-opacity="0.65"/>
<circle cx="69.1578" cy="17.6631" r="1" transform="rotate(-0.0314865 69.1578 17.6631)" fill="#111111" fill-opacity="0.65"/>
<circle cx="73.1578" cy="17.6609" r="1" transform="rotate(-0.0314865 73.1578 17.6609)" fill="#111111" fill-opacity="0.65"/>
<circle cx="77.1578" cy="17.6587" r="1" transform="rotate(-0.0314865 77.1578 17.6587)" fill="#111111" fill-opacity="0.65"/>
<circle cx="81.1578" cy="17.6565" r="1" transform="rotate(-0.0314865 81.1578 17.6565)" fill="#111111" fill-opacity="0.65"/>
<circle cx="85.1578" cy="17.6543" r="1" transform="rotate(-0.0314865 85.1578 17.6543)" fill="#111111" fill-opacity="0.65"/>
<circle cx="89.1578" cy="17.6521" r="1" transform="rotate(-0.0314865 89.1578 17.6521)" fill="#111111" fill-opacity="0.65"/>
<circle cx="65.1556" cy="13.6653" r="1" transform="rotate(-0.0314865 65.1556 13.6653)" fill="#111111" fill-opacity="0.65"/>
<circle cx="69.1556" cy="13.6631" r="1" transform="rotate(-0.0314865 69.1556 13.6631)" fill="#111111" fill-opacity="0.65"/>
<circle cx="73.1556" cy="13.6609" r="1" transform="rotate(-0.0314865 73.1556 13.6609)" fill="#111111" fill-opacity="0.65"/>
<circle cx="77.1556" cy="13.6587" r="1" transform="rotate(-0.0314865 77.1556 13.6587)" fill="#111111" fill-opacity="0.65"/>
<circle cx="81.1556" cy="13.6565" r="1" transform="rotate(-0.0314865 81.1556 13.6565)" fill="#111111" fill-opacity="0.65"/>
<circle cx="85.1556" cy="13.6543" r="1" transform="rotate(-0.0314865 85.1556 13.6543)" fill="#111111" fill-opacity="0.65"/>
<circle cx="89.1556" cy="13.6521" r="1" transform="rotate(-0.0314865 89.1556 13.6521)" fill="#111111" fill-opacity="0.65"/>
<circle cx="93.1556" cy="13.6499" r="1" transform="rotate(-0.0314865 93.1556 13.6499)" fill="#111111" fill-opacity="0.65"/>
<circle cx="69.1534" cy="9.66315" r="1" transform="rotate(-0.0314865 69.1534 9.66315)" fill="#111111" fill-opacity="0.65"/>
<circle cx="73.1534" cy="9.66095" r="1" transform="rotate(-0.0314865 73.1534 9.66095)" fill="#111111" fill-opacity="0.65"/>
<circle cx="77.1534" cy="9.65869" r="1" transform="rotate(-0.0314865 77.1534 9.65869)" fill="#111111" fill-opacity="0.65"/>
<circle cx="81.1534" cy="9.65649" r="1" transform="rotate(-0.0314865 81.1534 9.65649)" fill="#111111" fill-opacity="0.65"/>
<circle cx="85.1534" cy="9.6543" r="1" transform="rotate(-0.0314865 85.1534 9.6543)" fill="#111111" fill-opacity="0.65"/>
<circle cx="89.1534" cy="9.6521" r="1" transform="rotate(-0.0314865 89.1534 9.6521)" fill="#111111" fill-opacity="0.65"/>
<circle cx="93.1534" cy="9.6499" r="1" transform="rotate(-0.0314865 93.1534 9.6499)" fill="#111111" fill-opacity="0.65"/>
<circle cx="97.1534" cy="9.64771" r="1" transform="rotate(-0.0314865 97.1534 9.64771)" fill="#111111" fill-opacity="0.65"/>
<circle cx="21.5853" cy="25.5048" r="1" transform="rotate(-0.0314865 21.5853 25.5048)" fill="#111111" fill-opacity="0.65"/>
<circle cx="25.5853" cy="25.5026" r="1" transform="rotate(-0.0314865 25.5853 25.5026)" fill="#111111" fill-opacity="0.65"/>
<circle cx="29.5853" cy="25.5004" r="1" transform="rotate(-0.0314865 29.5853 25.5004)" fill="#111111" fill-opacity="0.65"/>
<circle cx="33.5853" cy="25.4982" r="1" transform="rotate(-0.0314865 33.5853 25.4982)" fill="#111111" fill-opacity="0.65"/>
<circle cx="37.5853" cy="25.496" r="1" transform="rotate(-0.0314865 37.5853 25.496)" fill="#111111" fill-opacity="0.65"/>
<circle cx="41.5853" cy="25.4938" r="1" transform="rotate(-0.0314865 41.5853 25.4938)" fill="#111111" fill-opacity="0.65"/>
<circle cx="45.5853" cy="25.4916" r="1" transform="rotate(-0.0314865 45.5853 25.4916)" fill="#111111" fill-opacity="0.65"/>
<circle cx="49.5853" cy="25.4894" r="1" transform="rotate(-0.0314865 49.5853 25.4894)" fill="#111111" fill-opacity="0.65"/>
<circle cx="17.5875" cy="29.507" r="1" transform="rotate(-0.0314865 17.5875 29.507)" fill="#111111" fill-opacity="0.65"/>
<circle cx="21.5875" cy="29.5048" r="1" transform="rotate(-0.0314865 21.5875 29.5048)" fill="#111111" fill-opacity="0.65"/>
<circle cx="25.5875" cy="29.5026" r="1" transform="rotate(-0.0314865 25.5875 29.5026)" fill="#111111" fill-opacity="0.65"/>
<circle cx="29.5875" cy="29.5004" r="1" transform="rotate(-0.0314865 29.5875 29.5004)" fill="#111111" fill-opacity="0.65"/>
<circle cx="33.5875" cy="29.4982" r="1" transform="rotate(-0.0314865 33.5875 29.4982)" fill="#111111" fill-opacity="0.65"/>
<circle cx="37.5875" cy="29.496" r="1" transform="rotate(-0.0314865 37.5875 29.496)" fill="#111111" fill-opacity="0.65"/>
<circle cx="41.5875" cy="29.4938" r="1" transform="rotate(-0.0314865 41.5875 29.4938)" fill="#111111" fill-opacity="0.65"/>
<circle cx="45.5875" cy="29.4916" r="1" transform="rotate(-0.0314865 45.5875 29.4916)" fill="#111111" fill-opacity="0.65"/>
<circle cx="1.59625" cy="45.5157" r="1" transform="rotate(-0.0314865 1.59625 45.5157)" fill="#111111" fill-opacity="0.65"/>
<circle cx="5.59625" cy="45.5135" r="1" transform="rotate(-0.0314865 5.59625 45.5135)" fill="#111111" fill-opacity="0.65"/>
<circle cx="9.59625" cy="45.5114" r="1" transform="rotate(-0.0314865 9.59625 45.5114)" fill="#111111" fill-opacity="0.65"/>
<circle cx="13.5963" cy="45.5092" r="1" transform="rotate(-0.0314865 13.5963 45.5092)" fill="#111111" fill-opacity="0.65"/>
<circle cx="17.5963" cy="45.507" r="1" transform="rotate(-0.0314865 17.5963 45.507)" fill="#111111" fill-opacity="0.65"/>
<circle cx="21.5963" cy="45.5048" r="1" transform="rotate(-0.0314865 21.5963 45.5048)" fill="#111111" fill-opacity="0.65"/>
<circle cx="25.5963" cy="45.5026" r="1" transform="rotate(-0.0314865 25.5963 45.5026)" fill="#111111" fill-opacity="0.65"/>
<circle cx="29.5963" cy="45.5004" r="1" transform="rotate(-0.0314865 29.5963 45.5004)" fill="#111111" fill-opacity="0.65"/>
<circle cx="5.59406" cy="41.5135" r="1" transform="rotate(-0.0314865 5.59406 41.5135)" fill="#111111" fill-opacity="0.65"/>
<circle cx="9.59406" cy="41.5114" r="1" transform="rotate(-0.0314865 9.59406 41.5114)" fill="#111111" fill-opacity="0.65"/>
<circle cx="13.5941" cy="41.5092" r="1" transform="rotate(-0.0314865 13.5941 41.5092)" fill="#111111" fill-opacity="0.65"/>
<circle cx="17.5941" cy="41.507" r="1" transform="rotate(-0.0314865 17.5941 41.507)" fill="#111111" fill-opacity="0.65"/>
<circle cx="21.5941" cy="41.5048" r="1" transform="rotate(-0.0314865 21.5941 41.5048)" fill="#111111" fill-opacity="0.65"/>
<circle cx="25.5941" cy="41.5026" r="1" transform="rotate(-0.0314865 25.5941 41.5026)" fill="#111111" fill-opacity="0.65"/>
<circle cx="29.5941" cy="41.5004" r="1" transform="rotate(-0.0314865 29.5941 41.5004)" fill="#111111" fill-opacity="0.65"/>
<circle cx="33.5941" cy="41.4982" r="1" transform="rotate(-0.0314865 33.5941 41.4982)" fill="#111111" fill-opacity="0.65"/>
<circle cx="9.59186" cy="37.5114" r="1" transform="rotate(-0.0314865 9.59186 37.5114)" fill="#111111" fill-opacity="0.65"/>
<circle cx="13.5919" cy="37.5092" r="1" transform="rotate(-0.0314865 13.5919 37.5092)" fill="#111111" fill-opacity="0.65"/>
<circle cx="17.5919" cy="37.507" r="1" transform="rotate(-0.0314865 17.5919 37.507)" fill="#111111" fill-opacity="0.65"/>
<circle cx="21.5919" cy="37.5048" r="1" transform="rotate(-0.0314865 21.5919 37.5048)" fill="#111111" fill-opacity="0.65"/>
<circle cx="25.5919" cy="37.5026" r="1" transform="rotate(-0.0314865 25.5919 37.5026)" fill="#111111" fill-opacity="0.65"/>
<circle cx="29.5919" cy="37.5004" r="1" transform="rotate(-0.0314865 29.5919 37.5004)" fill="#111111" fill-opacity="0.65"/>
<circle cx="33.5919" cy="37.4982" r="1" transform="rotate(-0.0314865 33.5919 37.4982)" fill="#111111" fill-opacity="0.65"/>
<circle cx="37.5919" cy="37.496" r="1" transform="rotate(-0.0314865 37.5919 37.496)" fill="#111111" fill-opacity="0.65"/>
<circle cx="13.5897" cy="33.5092" r="1" transform="rotate(-0.0314865 13.5897 33.5092)" fill="#111111" fill-opacity="0.65"/>
<circle cx="17.5897" cy="33.507" r="1" transform="rotate(-0.0314865 17.5897 33.507)" fill="#111111" fill-opacity="0.65"/>
<circle cx="21.5897" cy="33.5048" r="1" transform="rotate(-0.0314865 21.5897 33.5048)" fill="#111111" fill-opacity="0.65"/>
<circle cx="25.5897" cy="33.5026" r="1" transform="rotate(-0.0314865 25.5897 33.5026)" fill="#111111" fill-opacity="0.65"/>
<circle cx="29.5897" cy="33.5004" r="1" transform="rotate(-0.0314865 29.5897 33.5004)" fill="#111111" fill-opacity="0.65"/>
<circle cx="33.5897" cy="33.4982" r="1" transform="rotate(-0.0314865 33.5897 33.4982)" fill="#111111" fill-opacity="0.65"/>
<circle cx="37.5897" cy="33.496" r="1" transform="rotate(-0.0314865 37.5897 33.496)" fill="#111111" fill-opacity="0.65"/>
<circle cx="41.5897" cy="33.4938" r="1" transform="rotate(-0.0314865 41.5897 33.4938)" fill="#111111" fill-opacity="0.65"/>
</svg>
