<svg width="193" height="305" viewBox="0 0 193 305" fill="none" xmlns="http://www.w3.org/2000/svg">
<path d="M113.623 51.0826C137.771 41.8259 164.429 41.4891 188.803 50.133C213.177 58.7768 233.667 75.8339 246.587 98.2363L222.313 112.236C212.726 95.6138 197.522 82.9574 179.437 76.5436C161.351 70.1299 141.571 70.3798 123.653 77.2483L113.623 51.0826Z" fill="#F7D082"/>
<path d="M51.0584 191.314C41.8167 167.16 41.4966 140.502 50.1557 116.133C58.8147 91.7646 75.8846 71.2854 98.2951 58.3791L112.28 82.6623C95.6514 92.2388 82.9855 107.434 76.5605 125.516C70.1355 143.597 70.373 163.378 77.2303 181.3L51.0584 191.314Z" fill="#F7D082"/>
<path d="M191.38 253.916C167.232 263.174 140.574 263.511 116.2 254.868C91.8259 246.225 71.3356 229.168 58.4146 206.766L82.6886 192.766C92.276 209.388 107.48 222.044 125.565 228.457C143.651 234.87 163.431 234.62 181.349 227.751L191.38 253.916Z" fill="#F7D082"/>
<path d="M253.889 113.548C263.163 137.689 263.52 164.347 254.894 188.727C246.268 213.108 229.226 233.61 206.833 246.547L192.815 222.283C209.431 212.684 222.076 197.471 228.476 179.381C234.877 161.291 234.612 141.51 227.73 123.598L253.889 113.548Z" fill="#F7D082"/>
</svg>
